<svg width="7" height="14" viewBox="0 0 7 14" fill="none" xmlns="http://www.w3.org/2000/svg">
<path d="M6.47423 0.923661H4.60663C2.22803 0.899861 1.92423 2.37196 1.92423 3.96516V5.12366H0.874227C0.826769 5.11732 0.778488 5.12201 0.733135 5.13736C0.687781 5.1527 0.646577 5.1783 0.612721 5.21215C0.578865 5.24601 0.553269 5.28722 0.537921 5.33257C0.522574 5.37792 0.517887 5.4262 0.524227 5.47366V7.57366C0.517887 7.62112 0.522574 7.6694 0.537921 7.71475C0.553269 7.76011 0.578865 7.80131 0.612721 7.83517C0.646577 7.86902 0.687781 7.89462 0.733135 7.90997C0.778488 7.92531 0.826769 7.93 0.874227 7.92366H1.92423V13.1737C1.91839 13.2212 1.9235 13.2695 1.93917 13.3147C1.95483 13.36 1.98064 13.4011 2.01461 13.4348C2.04858 13.4686 2.08982 13.4942 2.13518 13.5096C2.18054 13.525 2.22882 13.5298 2.27633 13.5237H4.41483C4.62133 13.5475 4.78863 13.3802 4.72283 13.1737L4.72423 7.92366H6.47423C6.52168 7.93 6.56996 7.92531 6.61532 7.90997C6.66067 7.89462 6.70188 7.86902 6.73573 7.83517C6.76959 7.80131 6.79518 7.76011 6.81053 7.71475C6.82588 7.6694 6.83057 7.62112 6.82423 7.57366V5.47366C6.83057 5.4262 6.82588 5.37792 6.81053 5.33257C6.79518 5.28722 6.76959 5.24601 6.73573 5.21215C6.70188 5.1783 6.66067 5.1527 6.61532 5.13736C6.56996 5.12201 6.52168 5.11732 6.47423 5.12366H4.72213L4.72423 4.07366C4.79213 3.62636 4.79213 3.69916 5.20723 3.72366H6.45953C6.55683 3.70196 6.66043 3.71386 6.73323 3.64316C6.80603 3.57246 6.84803 3.47586 6.82353 3.37366V1.27366C6.82999 1.22624 6.82541 1.17797 6.81015 1.13261C6.79489 1.08725 6.76937 1.04602 6.73556 1.01215C6.70175 0.978275 6.66058 0.952665 6.61525 0.937316C6.56992 0.921968 6.52166 0.917294 6.47423 0.923661ZM6.09973 2.98446L5.22193 2.95086C4.13483 2.95086 4.04383 3.54096 4.04383 4.14506L4.04103 5.47226C4.04093 5.52141 4.05054 5.57009 4.06928 5.61552C4.08802 5.66095 4.11554 5.70225 4.15026 5.73703C4.18498 5.77181 4.22622 5.79941 4.27162 5.81824C4.31702 5.83707 4.36568 5.84676 4.41483 5.84676H6.12423V7.19916H4.41623C4.31702 7.19916 4.22187 7.23852 4.15166 7.3086C4.08145 7.37868 4.04191 7.47376 4.04173 7.57296L4.04103 12.8237H2.62423V7.57366C2.62423 7.36716 2.48353 7.19986 2.27633 7.19986H1.22423V5.84746H2.27633C2.32544 5.84754 2.37409 5.83793 2.41949 5.81919C2.4649 5.80045 2.50616 5.77295 2.54093 5.73826C2.61093 5.66756 2.62353 5.57236 2.62353 5.47296V3.96446C2.62353 2.39506 2.94063 1.64746 4.60593 1.64746H6.09903V2.98446H6.09973Z" fill="white"/>
</svg>
