<svg width="13" height="11" viewBox="0 0 13 11" fill="none" xmlns="http://www.w3.org/2000/svg">
<path d="M11.9559 1.73198C12.0335 1.58825 12.0975 1.43756 12.147 1.28188C12.1699 1.20966 12.1703 1.1322 12.1483 1.05972C12.1263 0.987236 12.0828 0.923142 12.0235 0.875899C11.9643 0.828656 11.8922 0.800486 11.8166 0.795108C11.741 0.78973 11.6656 0.807397 11.6003 0.845777C11.2416 1.05886 10.8533 1.21762 10.4481 1.31688C9.95617 0.872918 9.31731 0.626799 8.65468 0.625977C8.29468 0.626253 7.93845 0.699219 7.60733 0.840499C7.27622 0.98178 6.97704 1.18847 6.72773 1.44817C6.47842 1.70787 6.28412 2.01523 6.15647 2.35184C6.02883 2.68845 5.97046 3.04737 5.98488 3.40708C4.41059 3.20889 2.97302 2.41227 1.97038 1.18248C1.93197 1.13589 1.88287 1.09926 1.82727 1.0757C1.77167 1.05214 1.71121 1.04235 1.65101 1.04716C1.59082 1.05197 1.53267 1.07124 1.48152 1.10333C1.43037 1.13542 1.38771 1.17938 1.35718 1.23148C1.1276 1.62553 1.00281 2.07183 0.994724 2.52781C0.986637 2.98379 1.09552 3.43423 1.31098 3.83618C1.25814 3.84509 1.20737 3.8636 1.16118 3.89078C1.10459 3.92687 1.05799 3.97663 1.02569 4.03548C0.993393 4.09432 0.976436 4.16035 0.976384 4.22748C0.976384 5.02198 1.32988 5.75138 1.89968 6.24698L1.87518 6.27148C1.83217 6.32014 1.80257 6.37917 1.78931 6.44275C1.77606 6.50634 1.7796 6.57228 1.79958 6.63408C1.9184 7.00474 2.11679 7.34497 2.38087 7.63093C2.64494 7.91689 2.96833 8.14168 3.32838 8.28958C2.5889 8.65032 1.76133 8.791 0.944183 8.69488C0.860187 8.68632 0.775723 8.70586 0.704026 8.75045C0.632328 8.79504 0.577448 8.86215 0.547983 8.94128C0.519688 9.02099 0.519157 9.10792 0.546476 9.18797C0.573795 9.26802 0.627361 9.33649 0.698483 9.38228C1.80939 10.0953 3.10176 10.4741 4.42178 10.4736C8.74778 10.4736 11.3336 6.95958 11.3336 3.56248L11.3329 3.44768C11.7521 3.12037 12.1163 2.72807 12.4116 2.28568C12.4563 2.2188 12.4783 2.1393 12.4743 2.05895C12.4703 1.97859 12.4405 1.90166 12.3894 1.83955C12.3383 1.77743 12.2685 1.73343 12.1904 1.71405C12.1124 1.69468 12.0301 1.70096 11.9559 1.73198ZM10.7344 2.96048C10.6836 2.997 10.6428 3.04567 10.6156 3.10204C10.5885 3.15841 10.5759 3.22069 10.579 3.28318C10.5832 3.37558 10.5853 3.46938 10.5853 3.56178C10.5853 6.59138 8.28018 9.72528 4.42248 9.72528C3.73446 9.72559 3.05128 9.61011 2.40158 9.38368C3.1797 9.23456 3.91067 8.90088 4.53308 8.41068C4.59367 8.36291 4.63803 8.29759 4.66008 8.22365C4.68214 8.14971 4.68082 8.07077 4.6563 7.99761C4.63179 7.92445 4.58528 7.86065 4.52313 7.81493C4.46098 7.76921 4.38622 7.7438 4.30908 7.74218C4.00726 7.73641 3.71102 7.6598 3.44425 7.51851C3.17747 7.37722 2.94764 7.17521 2.77328 6.92878C2.95038 6.91688 3.12398 6.88748 3.29268 6.84198C3.37433 6.82013 3.44616 6.77125 3.49646 6.70332C3.54675 6.63539 3.57254 6.55242 3.56962 6.46795C3.56669 6.38348 3.53523 6.3025 3.48036 6.23821C3.42549 6.17392 3.35045 6.13013 3.26748 6.11398C2.9266 6.04463 2.61098 5.88392 2.35439 5.64904C2.0978 5.41415 1.9099 5.11392 1.81078 4.78048C1.99698 4.82738 2.18808 4.85468 2.37918 4.86098C2.54368 4.86028 2.69628 4.75948 2.74738 4.60128C2.79848 4.44308 2.73828 4.26878 2.59898 4.17638C2.26961 3.95693 2.01601 3.64116 1.87281 3.2722C1.72961 2.90324 1.70379 2.49906 1.79888 2.11488C3.01481 3.3625 4.65667 4.10543 6.39648 4.19528C6.51968 4.19598 6.62748 4.15188 6.70238 4.06158C6.77728 3.97128 6.80598 3.85158 6.77938 3.73678C6.68365 3.32448 6.72647 2.89212 6.90122 2.5066C7.07597 2.12109 7.37292 1.80393 7.74609 1.60419C8.11927 1.40445 8.54788 1.33327 8.96558 1.40167C9.38329 1.47007 9.76681 1.67424 10.0568 1.98258C10.1002 2.02895 10.1548 2.06349 10.2153 2.08296C10.2758 2.10243 10.3402 2.10619 10.4026 2.09388C10.5181 2.07078 10.6322 2.04418 10.7449 2.01338C10.6941 2.05141 10.6413 2.08669 10.5867 2.11908C10.5141 2.16354 10.4588 2.23141 10.43 2.31149C10.4011 2.39158 10.4004 2.47911 10.428 2.55965C10.4555 2.64019 10.5097 2.70894 10.5815 2.75457C10.6534 2.8002 10.7387 2.81999 10.8233 2.81068L10.9507 2.79458C10.8805 2.85237 10.8084 2.9077 10.7344 2.96048Z" fill="white"/>
</svg>
